Right_states
version=1
nRows=5
nColumns=140
inDegrees=yes

# SIMM Motion File Header:
name Right_states
datacolumns 140
datarows 5
otherdata 1
range 0.80257807 0.80379588
endheader
time	/jointset/sternoclavicular/sternoclavicular_r2/value	/jointset/sternoclavicular/sternoclavicular_r2/speed	/jointset/sternoclavicular/sternoclavicular_r3/value	/jointset/sternoclavicular/sternoclavicular_r3/speed	/jointset/unrotscap/unrotscap_r3/value	/jointset/unrotscap/unrotscap_r3/speed	/jointset/unrotscap/unrotscap_r2/value	/jointset/unrotscap/unrotscap_r2/speed	/jointset/acromioclavicular/acromioclavicular_r2/value	/jointset/acromioclavicular/acromioclavicular_r2/speed	/jointset/acromioclavicular/acromioclavicular_r3/value	/jointset/acromioclavicular/acromioclavicular_r3/speed	/jointset/acromioclavicular/acromioclavicular_r1/value	/jointset/acromioclavicular/acromioclavicular_r1/speed	/jointset/unrothum/unrothum_r1/value	/jointset/unrothum/unrothum_r1/speed	/jointset/unrothum/unrothum_r3/value	/jointset/unrothum/unrothum_r3/speed	/jointset/unrothum/unrothum_r2/value	/jointset/unrothum/unrothum_r2/speed	/jointset/shoulder0/elv_angle/value	/jointset/shoulder0/elv_angle/speed	/jointset/shoulder1/shoulder_elv/value	/jointset/shoulder1/shoulder_elv/speed	/jointset/shoulder1/shoulder1_r2/value	/jointset/shoulder1/shoulder1_r2/speed	/jointset/shoulder2/shoulder_rot/value	/jointset/shoulder2/shoulder_rot/speed	/jointset/elbow/elbow_flexion/value	/jointset/elbow/elbow_flexion/speed	/jointset/radioulnar/pro_sup/value	/jointset/radioulnar/pro_sup/speed	/jointset/radiocarpal/deviation/value	/jointset/radiocarpal/deviation/speed	/jointset/radiocarpal/flexion/value	/jointset/radiocarpal/flexion/speed	/jointset/wrist_hand/wrist_hand_r1/value	/jointset/wrist_hand/wrist_hand_r1/speed	/jointset/wrist_hand/wrist_hand_r3/value	/jointset/wrist_hand/wrist_hand_r3/speed	/forceset/DELT1/activation	/forceset/DELT1/fiber_length	/forceset/DELT2/activation	/forceset/DELT2/fiber_length	/forceset/DELT3/activation	/forceset/DELT3/fiber_length	/forceset/SUPSP/activation	/forceset/SUPSP/fiber_length	/forceset/INFSP/activation	/forceset/INFSP/fiber_length	/forceset/SUBSC/activation	/forceset/SUBSC/fiber_length	/forceset/TMIN/activation	/forceset/TMIN/fiber_length	/forceset/TMAJ/activation	/forceset/TMAJ/fiber_length	/forceset/PECM1/activation	/forceset/PECM2/activation	/forceset/PECM2/fiber_length	/forceset/PECM3/activation	/forceset/PECM3/fiber_length	/forceset/LAT1/activation	/forceset/LAT1/fiber_length	/forceset/LAT2/activation	/forceset/LAT2/fiber_length	/forceset/LAT3/activation	/forceset/LAT3/fiber_length	/forceset/CORB/activation	/forceset/CORB/fiber_length	/forceset/TRIlong/activation	/forceset/TRIlong/fiber_length	/forceset/TRIlat/activation	/forceset/TRIlat/fiber_length	/forceset/TRImed/activation	/forceset/TRImed/fiber_length	/forceset/ANC/activation	/forceset/ANC/fiber_length	/forceset/SUP/activation	/forceset/SUP/fiber_length	/forceset/BIClong/activation	/forceset/BIClong/fiber_length	/forceset/BICshort/activation	/forceset/BICshort/fiber_length	/forceset/BRA/activation	/forceset/BRA/fiber_length	/forceset/BRD/activation	/forceset/BRD/fiber_length	/forceset/ECRL/activation	/forceset/ECRL/fiber_length	/forceset/ECRB/activation	/forceset/ECRB/fiber_length	/forceset/ECU/activation	/forceset/ECU/fiber_length	/forceset/FCR/activation	/forceset/FCR/fiber_length	/forceset/FCU/activation	/forceset/FCU/fiber_length	/forceset/PL/activation	/forceset/PL/fiber_length	/forceset/PT/activation	/forceset/PT/fiber_length	/forceset/PQ/activation	/forceset/PQ/fiber_length	/forceset/FDSL/activation	/forceset/FDSL/fiber_length	/forceset/FDSR/activation	/forceset/FDSR/fiber_length	/forceset/FDSM/activation	/forceset/FDSM/fiber_length	/forceset/FDSI/activation	/forceset/FDSI/fiber_length	/forceset/FDPL/activation	/forceset/FDPL/fiber_length	/forceset/FDPR/activation	/forceset/FDPR/fiber_length	/forceset/FDPM/activation	/forceset/FDPM/fiber_length	/forceset/FDPI/activation	/forceset/FDPI/fiber_length	/forceset/EDCL/activation	/forceset/EDCL/fiber_length	/forceset/EDCR/activation	/forceset/EDCR/fiber_length	/forceset/EDCM/activation	/forceset/EDCM/fiber_length	/forceset/EDCI/activation	/forceset/EDCI/fiber_length	/forceset/EDM/activation	/forceset/EDM/fiber_length	/forceset/EIP/activation	/forceset/EIP/fiber_length	/forceset/EPL/activation	/forceset/EPL/fiber_length	/forceset/EPB/activation	/forceset/EPB/fiber_length	/forceset/FPL/activation	/forceset/FPL/fiber_length	/forceset/APL/activation	/forceset/APL/fiber_length
      0.80257807	    -14.95332637	    -17.21530002	      6.33352329	      7.29158857	     -6.33352329	     -7.29158857	     14.95332637	     17.21530002	     -3.02774442	     -3.48574807	     24.46916534	     28.17058974	     10.99872142	     12.66248621	    -10.99872142	    -12.66248621	    -24.46916534	    -28.17058974	      3.02774442	      3.48574807	    -22.29972515	     31.59959017	     61.79046635	     71.13744393	     22.29972515	    -31.59959017	    -36.16729551	    -74.00301628	    116.22869208	     -9.01899622	    -15.26062874	      7.18545111	     -0.11744867	     -0.02555664	     -0.06131178	      0.11854264	     -9.77953344	     -2.26878013	     -1.75645309	      3.39599642	      0.02000000	      0.13681969	      0.24902081	      0.07029517	      0.21004919	      0.08841218	      0.02870740	      0.04897160	      0.04743676	      0.06928032	      0.02000000	      0.08192974	      0.03485273	      0.06242709	      0.06467825	      0.13521475	      0.02000000	      0.02000000	      0.14127805	      0.02000000	      0.12305760	      0.06219816	      0.17770789	      0.04023822	      0.14701790	      0.02000000	      0.21988527	      0.02000000	      0.10616523	      0.28756157	      0.17541288	      0.02000000	      0.11330219	      0.02000000	      0.10821432	      0.02000000	      0.02652877	      0.05094226	      0.03194519	      0.03457167	      0.09247264	      0.02000000	      0.13366208	      0.13606741	      0.05761126	      0.07873564	      0.09272613	      0.06922212	      0.04749210	      0.07252362	      0.05802966	      0.07266520	      0.07253494	      0.02000000	      0.04579015	      0.02000000	      0.03206560	      0.02000000	      0.04500533	      0.02000000	      0.03933591	      0.02000000	      0.02843457	      0.02000000	      0.03130106	      0.02000000	      0.05562439	      0.02000000	      0.07481314	      0.02000000	      0.08686960	      0.02000000	      0.07651516	      0.02000000	      0.08027720	      0.02000000	      0.07643384	      0.02000000	      0.07558682	      0.02000000	      0.07892304	      0.05337750	      0.06659969	      0.03810542	      0.07773670	      0.02000000	      0.07052789	      0.02455549	      0.07967998	      0.02000000	      0.06428095	      0.02000000	      0.06043597	      0.02000000	      0.06577552	      0.02000000	      0.06047987	      0.02000000	      0.06914628
      0.80259069	    -14.95354358	    -17.21572055	      6.33361529	      7.29176669	     -6.33361529	     -7.29176669	     14.95354358	     17.21572055	     -3.02778840	     -3.48583322	     24.46952078	     28.17127789	     10.99888119	     12.66279553	    -10.99888119	    -12.66279553	    -24.46952078	    -28.17127789	      3.02778840	      3.48583322	    -22.29932646	     31.59908831	     61.79136391	     71.13918165	     22.29932646	    -31.59908831	    -36.16822905	    -73.97596983	    116.22857829	     -9.01795738	    -15.26053879	      7.07272619	     -0.11744899	     -0.02601758	     -0.06131030	      0.11621633	     -9.77956233	     -2.30970060	     -1.75641066	      3.32935271	      0.02000000	      0.13681946	      0.24902081	      0.07029473	      0.21004919	      0.08841222	      0.02870740	      0.04897103	      0.04743676	      0.06927995	      0.02000000	      0.08192995	      0.03485273	      0.06242704	      0.06467825	      0.13521551	      0.02000000	      0.02000000	      0.14127852	      0.02000000	      0.12305831	      0.06219816	      0.17770848	      0.04023822	      0.14701871	      0.02000000	      0.21988619	      0.02000000	      0.10616574	      0.28756157	      0.17541317	      0.02000000	      0.11330215	      0.02000000	      0.10821428	      0.02000000	      0.02652875	      0.05094226	      0.03194521	      0.03457167	      0.09247249	      0.02000000	      0.13366274	      0.13606741	      0.05761131	      0.07873564	      0.09272628	      0.06922212	      0.04749218	      0.07252362	      0.05802970	      0.07266520	      0.07253496	      0.02000000	      0.04579012	      0.02000000	      0.03206557	      0.02000000	      0.04500527	      0.02000000	      0.03933592	      0.02000000	      0.02843456	      0.02000000	      0.03130103	      0.02000000	      0.05562436	      0.02000000	      0.07481309	      0.02000000	      0.08686955	      0.02000000	      0.07651512	      0.02000000	      0.08027715	      0.02000000	      0.07643379	      0.02000000	      0.07558678	      0.02000000	      0.07892308	      0.05337750	      0.06659974	      0.03810542	      0.07773676	      0.02000000	      0.07052795	      0.02455549	      0.07968002	      0.02000000	      0.06428100	      0.02000000	      0.06043599	      0.02000000	      0.06577550	      0.02000000	      0.06047982	      0.02000000	      0.06914624
      0.80265377	    -14.95462972	    -17.21782054	      6.33407533	      7.29265614	     -6.33407533	     -7.29265614	     14.95462972	     17.21782054	     -3.02800832	     -3.48625842	     24.47129810	     28.17471425	     10.99968008	     12.66434015	    -10.99968008	    -12.66434015	    -24.47129810	    -28.17471425	      3.02800832	      3.48625842	    -22.29733308	     31.59658094	     61.79585207	     71.14785929	     22.29733308	    -31.59658094	    -36.17289164	    -73.84139566	    116.22800955	     -9.01274872	    -15.26011023	      6.51581259	     -0.11745071	     -0.02830876	     -0.06130333	      0.10461127	     -9.77971446	     -2.51310290	     -1.75621112	      2.99689204	      0.02000000	      0.13681826	      0.24902081	      0.07029256	      0.21004919	      0.08841242	      0.02870740	      0.04896817	      0.04743676	      0.06927806	      0.02000000	      0.08193100	      0.03485273	      0.06242678	      0.06467825	      0.13521929	      0.02000000	      0.02000000	      0.14128089	      0.02000000	      0.12306184	      0.06219816	      0.17771140	      0.04023822	      0.14702275	      0.02000000	      0.21989082	      0.02000000	      0.10616830	      0.28756157	      0.17541465	      0.02000000	      0.11330196	      0.02000000	      0.10821409	      0.02000000	      0.02652863	      0.05094226	      0.03194528	      0.03457167	      0.09247174	      0.02000000	      0.13366605	      0.13606741	      0.05761154	      0.07873564	      0.09272702	      0.06922212	      0.04749261	      0.07252362	      0.05802993	      0.07266520	      0.07253505	      0.02000000	      0.04578993	      0.02000000	      0.03206543	      0.02000000	      0.04500499	      0.02000000	      0.03933597	      0.02000000	      0.02843451	      0.02000000	      0.03130089	      0.02000000	      0.05562418	      0.02000000	      0.07481282	      0.02000000	      0.08686929	      0.02000000	      0.07651491	      0.02000000	      0.08027694	      0.02000000	      0.07643357	      0.02000000	      0.07558656	      0.02000000	      0.07892330	      0.05337750	      0.06660001	      0.03810542	      0.07773709	      0.02000000	      0.07052827	      0.02455549	      0.07968019	      0.02000000	      0.06428122	      0.02000000	      0.06043609	      0.02000000	      0.06577544	      0.02000000	      0.06047955	      0.02000000	      0.06914609
      0.80296920	    -14.96006238	    -17.22824910	      6.33637635	      7.29707319	     -6.33637635	     -7.29707319	     14.96006238	     17.22824910	     -3.02910832	     -3.48836999	     24.48018793	     28.19177923	     11.00367600	     12.67201074	    -11.00367600	    -12.67201074	    -24.48018793	    -28.19177923	      3.02910832	      3.48836999	    -22.28736856	     31.58409810	     61.81830101	     71.19095242	     22.28736856	    -31.58409810	    -36.19607924	    -73.18601036	    116.22517081	     -8.98640846	    -15.25847467	      3.90235512	     -0.11746140	     -0.03940976	     -0.06127940	      0.04734453	     -9.78066401	     -3.49862962	     -1.75552557	      1.35632091	      0.02000000	      0.13681227	      0.24902081	      0.07028168	      0.21004919	      0.08841339	      0.02870740	      0.04895388	      0.04743676	      0.06926862	      0.02000000	      0.08193625	      0.03485273	      0.06242546	      0.06467825	      0.13523821	      0.02000000	      0.02000000	      0.14129271	      0.02000000	      0.12307948	      0.06219816	      0.17772602	      0.04023822	      0.14704293	      0.02000000	      0.21991397	      0.02000000	      0.10618110	      0.28756157	      0.17542204	      0.02000000	      0.11330102	      0.02000000	      0.10821315	      0.02000000	      0.02652803	      0.05094226	      0.03194561	      0.03457167	      0.09246802	      0.02000000	      0.13368256	      0.13606741	      0.05761271	      0.07873564	      0.09273077	      0.06922212	      0.04749471	      0.07252362	      0.05803102	      0.07266520	      0.07253549	      0.02000000	      0.04578902	      0.02000000	      0.03206475	      0.02000000	      0.04500360	      0.02000000	      0.03933623	      0.02000000	      0.02843428	      0.02000000	      0.03130020	      0.02000000	      0.05562334	      0.02000000	      0.07481147	      0.02000000	      0.08686803	      0.02000000	      0.07651387	      0.02000000	      0.08027587	      0.02000000	      0.07643250	      0.02000000	      0.07558547	      0.02000000	      0.07892435	      0.05337750	      0.06660135	      0.03810542	      0.07773869	      0.02000000	      0.07052982	      0.02455549	      0.07968104	      0.02000000	      0.06428230	      0.02000000	      0.06043661	      0.02000000	      0.06577510	      0.02000000	      0.06047824	      0.02000000	      0.06914532
      0.80379588	    -14.97431569	    -17.25493251	      6.34241338	      7.30837502	     -6.34241338	     -7.30837502	     14.97431569	     17.25493251	     -3.03199433	     -3.49377284	     24.50351163	     28.23544314	     11.01415984	     12.69163737	    -11.01415984	    -12.69163737	    -24.50351163	    -28.23544314	      3.03199433	      3.49377284	    -22.26127203	     31.55189737	     61.87719889	     71.30121419	     22.26127203	    -31.55189737	    -36.25591815	    -71.62226110	    116.21777081	     -8.91658209	    -15.25765739	     -1.60950262	     -0.11750505	     -0.06539160	     -0.06129987	     -0.09463175	     -9.78453859	     -5.80545062	     -1.75611195	     -2.71100003	      0.02000000	      0.13679652	      0.24902081	      0.07025293	      0.21004919	      0.08841603	      0.02870740	      0.04891653	      0.04743676	      0.06924403	      0.02000000	      0.08194980	      0.03485273	      0.06242203	      0.06467825	      0.13528766	      0.02000000	      0.02000000	      0.14132362	      0.02000000	      0.12312567	      0.06219816	      0.17776429	      0.04023822	      0.14709581	      0.02000000	      0.21997457	      0.02000000	      0.10621463	      0.28756157	      0.17544142	      0.02000000	      0.11329855	      0.02000000	      0.10821069	      0.02000000	      0.02652647	      0.05094226	      0.03194635	      0.03457167	      0.09245813	      0.02000000	      0.13372561	      0.13606741	      0.05761575	      0.07873564	      0.09274085	      0.06922212	      0.04749998	      0.07252362	      0.05803368	      0.07266520	      0.07253664	      0.02000000	      0.04578688	      0.02000000	      0.03206328	      0.02000000	      0.04500032	      0.02000000	      0.03933703	      0.02000000	      0.02843400	      0.02000000	      0.03129858	      0.02000000	      0.05562138	      0.02000000	      0.07480820	      0.02000000	      0.08686500	      0.02000000	      0.07651139	      0.02000000	      0.08027331	      0.02000000	      0.07642990	      0.02000000	      0.07558280	      0.02000000	      0.07892693	      0.05337750	      0.06660476	      0.03810542	      0.07774267	      0.02000000	      0.07053366	      0.02455549	      0.07968316	      0.02000000	      0.06428487	      0.02000000	      0.06043783	      0.02000000	      0.06577427	      0.02000000	      0.06047513	      0.02000000	      0.06914355
